<?xml version="1.0" encoding="UTF-8" standalone="no"?>
<!-- Created with Inkscape (http://www.inkscape.org/) -->
<svg
   xmlns:dc="http://purl.org/dc/elements/1.1/"
   xmlns:cc="http://creativecommons.org/ns#"
   xmlns:rdf="http://www.w3.org/1999/02/22-rdf-syntax-ns#"
   xmlns:svg="http://www.w3.org/2000/svg"
   xmlns="http://www.w3.org/2000/svg"
   xmlns:sodipodi="http://sodipodi.sourceforge.net/DTD/sodipodi-0.dtd"
   xmlns:inkscape="http://www.inkscape.org/namespaces/inkscape"
   width="297mm"
   height="210mm"
   id="svg2486"
   sodipodi:version="0.32"
   inkscape:version="0.46"
   sodipodi:docname="ingame_landscape.svg"
   inkscape:output_extension="org.inkscape.output.svg.inkscape">
  <defs
     id="defs2488">
    <inkscape:perspective
       sodipodi:type="inkscape:persp3d"
       inkscape:vp_x="0 : 372.04724 : 1"
       inkscape:vp_y="0 : 1000 : 0"
       inkscape:vp_z="1052.3622 : 372.04724 : 1"
       inkscape:persp3d-origin="526.18109 : 248.03149 : 1"
       id="perspective2495" />
  </defs>
  <sodipodi:namedview
     inkscape:document-units="mm"
     pagecolor="#ffffff"
     bordercolor="#666666"
     borderopacity="1.0"
     inkscape:pageopacity="0.0"
     inkscape:pageshadow="2"
     inkscape:zoom="0.5"
     inkscape:cx="878.12843"
     inkscape:cy="301.93485"
     inkscape:current-layer="layer1"
     id="namedview2490"
     showgrid="false"
     inkscape:window-width="976"
     inkscape:window-height="845"
     inkscape:window-x="198"
     inkscape:window-y="116" />
  <metadata
     id="metadata2492">
    <rdf:RDF>
      <cc:Work
         rdf:about="">
        <dc:format>image/svg+xml</dc:format>
        <dc:type
           rdf:resource="http://purl.org/dc/dcmitype/StillImage" />
      </cc:Work>
    </rdf:RDF>
  </metadata>
  <g
     inkscape:label="Layer 1"
     inkscape:groupmode="layer"
     id="layer1">
    <rect
       style="fill:#ffffff;fill-opacity:0;stroke:#000000;stroke-width:0.38191935"
       id="rect2497"
       width="976.6181"
       height="50.618069"
       x="41.69096"
       y="55.785439" />
    <rect
       style="fill:#ffffff;fill-opacity:0;stroke:#000000"
       id="rect2499"
       width="976"
       height="592"
       x="40"
       y="108.09448" />
    <text
       xml:space="preserve"
       style="font-size:32px;font-style:normal;font-variant:normal;font-weight:normal;font-stretch:normal;text-align:start;line-height:125%;writing-mode:lr-tb;text-anchor:start;fill:#000000;fill-opacity:1;stroke:none;stroke-width:1px;stroke-linecap:butt;stroke-linejoin:miter;stroke-opacity:1;font-family:Sans;-inkscape-font-specification:Sans"
       x="879.68335"
       y="94.298988"
       id="text2452"
       sodipodi:linespacing="125%"><tspan
         sodipodi:role="line"
         id="tspan2454"
         x="879.68335"
         y="94.298988">1:06 PM</tspan></text>
    <rect
       style="fill:#ffffff;fill-opacity:0;stroke:#000000;stroke-width:0.96787196"
       id="rect2456"
       width="33.082378"
       height="27.976673"
       x="834.94116"
       y="68.106148" />
    <rect
       style="fill:#ffffff;fill-opacity:0;stroke:#000000"
       id="rect2458"
       width="7"
       height="11"
       x="837.3714"
       y="83.122223" />
    <rect
       style="fill:#ffffff;fill-opacity:0;stroke:#000000;stroke-width:1.13329697"
       id="rect2460"
       width="6.866703"
       height="14.402237"
       x="844.58453"
       y="79.506882" />
    <rect
       style="fill:#ffffff;fill-opacity:0;stroke:#000000;stroke-width:1.27165973"
       id="rect2462"
       width="6.7283401"
       height="18.506516"
       x="851.60938"
       y="75.193321" />
    <rect
       style="fill:#ffffff;fill-opacity:0;stroke:#000000;stroke-width:1.39813805"
       id="rect2464"
       width="6.601862"
       height="22.799454"
       x="858.74365"
       y="70.837158" />
    <path
       style="fill:none;fill-rule:evenodd;stroke:#000000;stroke-width:1.21051085px;stroke-linecap:butt;stroke-linejoin:miter;stroke-opacity:1"
       d="M 44.427692,567.59897 C 64.933405,562.61465 102.83427,547.8618 127.41225,535.31017 C 144.40173,526.63391 162.42787,519.76377 177.79569,517.14772 C 187.00869,515.57941 216.6055,532.15788 228.17925,535.31017 C 248.35971,540.80662 273.8115,560.32769 287.45388,569.61702 C 301.61141,579.25703 309.91623,585.76142 325.98251,585.76142 C 336.2143,585.76142 361.71423,570.78237 373.40222,567.59897 C 391.95396,562.5461 402.42096,553.89385 411.93085,547.41847 C 422.15752,540.45494 433.09721,530.89252 441.56817,523.20187 C 452.92388,512.89216 459.28353,505.13064 468.24175,492.93111 C 474.31123,484.66552 480.57984,474.1107 486.02414,466.69646 C 492.75009,457.53695 501.52408,447.91555 509.734,440.46181 C 516.11163,434.67166 544.90278,437.36732 551.22636,438.44376 C 573.16662,442.17862 592.68196,444.89156 613.46473,450.55206 C 630.26839,455.1288 648.26926,458.36541 660.88455,462.66037 C 673.64743,467.00557 693.4856,474.04539 693.4856,460.64231 C 693.4856,449.80223 696.44933,440.43352 696.44933,430.37156 C 696.44933,418.56996 708.79049,409.85996 717.19545,404.13691 C 731.62619,394.31084 733.85642,398.08276 755.72408,398.08276 C 768.63796,398.08276 780.67018,403.84286 794.25259,406.15496 C 795.60798,406.38569 792.27681,404.80959 791.28886,404.13691"
       id="path3230" />
    <rect
       style="fill:#ffffff;fill-opacity:0;stroke:#000000;stroke-width:1.23183441"
       id="rect3232"
       width="68.339592"
       height="65.252724"
       x="680.63208"
       y="138.43823" />
    <text
       xml:space="preserve"
       style="font-size:36px;font-style:normal;font-variant:normal;font-weight:normal;font-stretch:normal;text-align:start;line-height:125%;writing-mode:lr-tb;text-anchor:start;fill:#000000;fill-opacity:1;stroke:none;stroke-width:1px;stroke-linecap:butt;stroke-linejoin:miter;stroke-opacity:1;font-family:Times New Roman;-inkscape-font-specification:Times New Roman"
       x="708.64319"
       y="183.38004"
       id="text3234"
       sodipodi:linespacing="125%"><tspan
         sodipodi:role="line"
         x="708.64319"
         y="183.38004"
         id="tspan3236">-</tspan></text>
    <rect
       style="fill:#ffffff;fill-opacity:0;stroke:#000000;stroke-width:1.25777018"
       id="rect3238"
       width="68.31366"
       height="68.055214"
       x="680.64502"
       y="232.59741" />
    <text
       xml:space="preserve"
       style="font-size:36px;font-style:normal;font-variant:normal;font-weight:normal;font-stretch:normal;text-align:start;line-height:125%;writing-mode:lr-tb;text-anchor:start;fill:#000000;fill-opacity:1;stroke:none;stroke-width:1px;stroke-linecap:butt;stroke-linejoin:miter;stroke-opacity:1;font-family:Times New Roman;-inkscape-font-specification:Times New Roman"
       x="705.3479"
       y="279.27811"
       id="text3240"
       sodipodi:linespacing="125%"><tspan
         sodipodi:role="line"
         x="705.3479"
         y="279.27811"
         id="tspan3242">+</tspan></text>
    <path
       sodipodi:type="arc"
       style="fill:#ff0000;fill-rule:evenodd;stroke:#000000;stroke-width:1px;stroke-linecap:butt;stroke-linejoin:miter;stroke-opacity:1"
       id="path3197"
       sodipodi:cx="-125"
       sodipodi:cy="507.36218"
       sodipodi:rx="5"
       sodipodi:ry="5"
       d="M -120,507.36218 A 5,5 0 1 1 -130,507.36218 A 5,5 0 1 1 -120,507.36218 z"
       transform="translate(258.747,14.13964)" />
    <path
       sodipodi:type="arc"
       style="fill:#ff0000;fill-rule:evenodd;stroke:#000000;stroke-width:1px;stroke-linecap:butt;stroke-linejoin:miter;stroke-opacity:1"
       id="path3199"
       sodipodi:cx="-125"
       sodipodi:cy="507.36218"
       sodipodi:rx="5"
       sodipodi:ry="5"
       d="M -120,507.36218 A 5,5 0 1 1 -130,507.36218 A 5,5 0 1 1 -120,507.36218 z"
       transform="translate(268.747,14.13964)" />
    <path
       sodipodi:type="arc"
       style="fill:#ff0000;fill-rule:evenodd;stroke:#000000;stroke-width:1px;stroke-linecap:butt;stroke-linejoin:miter;stroke-opacity:1"
       id="path3201"
       sodipodi:cx="-125"
       sodipodi:cy="507.36218"
       sodipodi:rx="5"
       sodipodi:ry="5"
       d="M -120,507.36218 A 5,5 0 1 1 -130,507.36218 A 5,5 0 1 1 -120,507.36218 z"
       transform="translate(278.747,14.13964)" />
    <path
       sodipodi:type="arc"
       style="fill:#ff0000;fill-rule:evenodd;stroke:#000000;stroke-width:1px;stroke-linecap:butt;stroke-linejoin:miter;stroke-opacity:1"
       id="path3203"
       sodipodi:cx="-125"
       sodipodi:cy="507.36218"
       sodipodi:rx="5"
       sodipodi:ry="5"
       d="M -120,507.36218 A 5,5 0 1 1 -130,507.36218 A 5,5 0 1 1 -120,507.36218 z"
       transform="translate(288.747,14.13964)" />
    <path
       sodipodi:type="arc"
       style="fill:#ff0000;fill-rule:evenodd;stroke:#000000;stroke-width:1px;stroke-linecap:butt;stroke-linejoin:miter;stroke-opacity:1"
       id="path3211"
       sodipodi:cx="-125"
       sodipodi:cy="507.36218"
       sodipodi:rx="5"
       sodipodi:ry="5"
       d="M -120,507.36218 A 5,5 0 1 1 -130,507.36218 A 5,5 0 1 1 -120,507.36218 z"
       transform="translate(298.747,14.13964)" />
    <path
       style="fill:#ff0000;fill-rule:evenodd;stroke:#000000;stroke-width:1px;stroke-linecap:butt;stroke-linejoin:miter;stroke-opacity:1"
       d="M 128.747,516.50182 L 178.747,516.50182 L 173.747,511.50182 L 133.747,511.50182 L 128.747,516.50182 z"
       id="path3215" />
    <path
       style="fill:#ff0000;fill-rule:evenodd;stroke:#000000;stroke-width:1px;stroke-linecap:butt;stroke-linejoin:miter;stroke-opacity:1"
       d="M 151.4576,505.63466 L 154.9245,509.23747 L 183.747,481.50182 L 180.28,477.89901 L 151.4576,505.63466 z"
       id="path3223" />
    <path
       style="fill:#ff0000;fill-rule:evenodd;stroke:#000000;stroke-width:1px;stroke-linecap:butt;stroke-linejoin:miter;stroke-opacity:1"
       d="M 138.747,511.50182 L 143.747,496.50182 L 163.747,496.50182 L 168.747,511.50182 L 138.747,511.50182 z"
       id="path3221" />
    <path
       sodipodi:type="arc"
       style="fill:#00ff00;fill-rule:evenodd;stroke:#000000;stroke-width:1px;stroke-linecap:butt;stroke-linejoin:miter;stroke-opacity:1"
       id="path3452"
       sodipodi:cx="-125"
       sodipodi:cy="507.36218"
       sodipodi:rx="5"
       sodipodi:ry="5"
       d="M -120,507.36218 A 5,5 0 1 1 -130,507.36218 A 5,5 0 1 1 -120,507.36218 z"
       transform="translate(691.8898,-65.57464)" />
    <path
       sodipodi:type="arc"
       style="fill:#00ff00;fill-rule:evenodd;stroke:#000000;stroke-width:1px;stroke-linecap:butt;stroke-linejoin:miter;stroke-opacity:1"
       id="path3454"
       sodipodi:cx="-125"
       sodipodi:cy="507.36218"
       sodipodi:rx="5"
       sodipodi:ry="5"
       d="M -120,507.36218 A 5,5 0 1 1 -130,507.36218 A 5,5 0 1 1 -120,507.36218 z"
       transform="translate(701.8898,-65.57464)" />
    <path
       sodipodi:type="arc"
       style="fill:#00ff00;fill-rule:evenodd;stroke:#000000;stroke-width:1px;stroke-linecap:butt;stroke-linejoin:miter;stroke-opacity:1"
       id="path3456"
       sodipodi:cx="-125"
       sodipodi:cy="507.36218"
       sodipodi:rx="5"
       sodipodi:ry="5"
       d="M -120,507.36218 A 5,5 0 1 1 -130,507.36218 A 5,5 0 1 1 -120,507.36218 z"
       transform="translate(711.8898,-65.57464)" />
    <path
       sodipodi:type="arc"
       style="fill:#00ff00;fill-rule:evenodd;stroke:#000000;stroke-width:1px;stroke-linecap:butt;stroke-linejoin:miter;stroke-opacity:1"
       id="path3458"
       sodipodi:cx="-125"
       sodipodi:cy="507.36218"
       sodipodi:rx="5"
       sodipodi:ry="5"
       d="M -120,507.36218 A 5,5 0 1 1 -130,507.36218 A 5,5 0 1 1 -120,507.36218 z"
       transform="translate(721.8898,-65.57464)" />
    <path
       sodipodi:type="arc"
       style="fill:#00ff00;fill-rule:evenodd;stroke:#000000;stroke-width:1px;stroke-linecap:butt;stroke-linejoin:miter;stroke-opacity:1"
       id="path3460"
       sodipodi:cx="-125"
       sodipodi:cy="507.36218"
       sodipodi:rx="5"
       sodipodi:ry="5"
       d="M -120,507.36218 A 5,5 0 1 1 -130,507.36218 A 5,5 0 1 1 -120,507.36218 z"
       transform="translate(731.8898,-65.57464)" />
    <path
       style="fill:#00ff00;fill-rule:evenodd;stroke:#000000;stroke-width:1px;stroke-linecap:butt;stroke-linejoin:miter;stroke-opacity:1"
       d="M 561.8898,436.78754 L 611.8898,436.78754 L 606.8898,431.78754 L 566.8898,431.78754 L 561.8898,436.78754 z"
       id="path3462" />
    <path
       style="fill:#00ff00;fill-rule:evenodd;stroke:#000000;stroke-width:1px;stroke-linecap:butt;stroke-linejoin:miter;stroke-opacity:1"
       d="M 593.4203,429.63997 L 597.0652,426.21733 L 569.6842,397.05779 L 566.0392,400.48042 L 593.4203,429.63997 z"
       id="path3464" />
    <path
       style="fill:#00ff00;fill-rule:evenodd;stroke:#000000;stroke-width:1px;stroke-linecap:butt;stroke-linejoin:miter;stroke-opacity:1"
       d="M 571.8898,431.78754 L 576.8898,416.78754 L 596.8898,416.78754 L 601.8898,431.78754 L 571.8898,431.78754 z"
       id="path3466" />
    <rect
       style="fill:#ffffff;fill-opacity:0;stroke:#000000;stroke-width:0.9387722"
       id="rect2646"
       width="592.06122"
       height="216.06123"
       x="106.04447"
       y="-1012.6064"
       transform="matrix(0,1,-1,0,0,0)" />
    <rect
       style="fill:#ffffff;fill-opacity:0;stroke:#000000;stroke-width:0.97686946"
       id="rect2652"
       width="410.0231"
       height="109.0231"
       x="109.42397"
       y="-907.96429"
       transform="matrix(0,1,-1,0,0,0)" />
    <rect
       style="fill:#ff471a;fill-opacity:1;stroke:#000000;stroke-width:0.68339694"
       id="rect2656"
       width="198.3166"
       height="110.31658"
       x="258.91681"
       y="-906.73413"
       transform="matrix(0,1,-1,0,0,0)" />
    <path
       sodipodi:type="star"
       style="fill:#808080;stroke:#000000;stroke-opacity:1"
       id="path2583"
       sodipodi:sides="3"
       sodipodi:cx="335.37064"
       sodipodi:cy="830.1286"
       sodipodi:r1="29.829447"
       sodipodi:r2="14.914723"
       sodipodi:arg1="0.52359878"
       sodipodi:arg2="1.5707963"
       inkscape:flatsided="true"
       inkscape:rounded="0"
       inkscape:randomized="0"
       d="M 361.20369,845.04332 L 309.53758,845.04332 L 335.37064,800.29915 L 361.20369,845.04332 z"
       transform="matrix(0,2.4929767,-2.2897265,0,2844.2679,-458.99604)" />
    <rect
       style="fill:#ffffff;fill-opacity:0;stroke:#000000;stroke-width:0.64818883"
       id="rect2648"
       width="110.35181"
       height="178.35179"
       x="797.8241"
       y="518.91858" />
    <text
       xml:space="preserve"
       style="font-size:32px;font-style:normal;font-variant:normal;font-weight:normal;font-stretch:normal;fill:#000000;fill-opacity:1;stroke:none;stroke-width:1px;stroke-linecap:butt;stroke-linejoin:miter;stroke-opacity:1;font-family:Sans;-inkscape-font-specification:Sans;text-anchor:start;text-align:start;writing-mode:lr;line-height:125%"
       x="805.39062"
       y="618.67462"
       id="text3431"
       sodipodi:linespacing="125%"><tspan
         sodipodi:role="line"
         id="tspan3433"
         x="805.39062"
         y="618.67462">WEAP</tspan></text>
    <rect
       style="fill:#ffffff;fill-opacity:0;stroke:#000000;stroke-width:0.96107328"
       id="rect2562"
       width="408.03894"
       height="106.0389"
       x="111.07502"
       y="-1013.0193"
       transform="matrix(0,1,-1,0,0,0)" />
    <text
       xml:space="preserve"
       style="font-size:32px;font-style:normal;font-variant:normal;font-weight:normal;font-stretch:normal;text-align:start;line-height:125%;writing-mode:lr-tb;text-anchor:start;fill:#000000;fill-opacity:1;stroke:none;stroke-width:1px;stroke-linecap:butt;stroke-linejoin:miter;stroke-opacity:1;font-family:Sans;-inkscape-font-specification:Sans"
       x="918.52344"
       y="618.75854"
       id="text2564"
       sodipodi:linespacing="125%"><tspan
         sodipodi:role="line"
         id="tspan2566"
         x="918.52344"
         y="618.75854">FIRE</tspan></text>
    <rect
       style="fill:#ff471a;fill-opacity:0;stroke:#000000"
       id="rect3346"
       width="112"
       height="60"
       x="796"
       y="456.09448" />
    <rect
       style="fill:#ff471a;fill-opacity:0;stroke:#000000"
       id="rect3857"
       width="112"
       height="60"
       x="798"
       y="106.09448" />
    <rect
       style="fill:#ff471a;fill-opacity:0;stroke:#000000"
       id="rect3859"
       width="112"
       height="60"
       x="906"
       y="104.09448" />
    <rect
       style="fill:#ff471a;fill-opacity:0;stroke:#000000;stroke-width:0.96407896"
       id="rect3861"
       width="104.03592"
       height="60.035919"
       x="907.98206"
       y="456.07651" />
    <text
       xml:space="preserve"
       style="font-size:22px;font-style:normal;font-variant:normal;font-weight:normal;font-stretch:normal;text-align:start;line-height:125%;writing-mode:lr-tb;text-anchor:start;fill:#000000;fill-opacity:1;stroke:none;stroke-width:1px;stroke-linecap:butt;stroke-linejoin:miter;stroke-opacity:1;font-family:Sans;-inkscape-font-specification:Sans"
       x="262"
       y="732.09448"
       id="text2607"
       sodipodi:linespacing="125%"><tspan
         sodipodi:role="line"
         id="tspan2609"
         x="262"
         y="732.09448">menu: same as ingame.svg</tspan></text>
  </g>
</svg>
