<?xml version="1.0" encoding="UTF-8" standalone="no"?>
<!-- Created with Inkscape (http://www.inkscape.org/) -->
<svg
   xmlns:dc="http://purl.org/dc/elements/1.1/"
   xmlns:cc="http://creativecommons.org/ns#"
   xmlns:rdf="http://www.w3.org/1999/02/22-rdf-syntax-ns#"
   xmlns:svg="http://www.w3.org/2000/svg"
   xmlns="http://www.w3.org/2000/svg"
   xmlns:sodipodi="http://sodipodi.sourceforge.net/DTD/sodipodi-0.dtd"
   xmlns:inkscape="http://www.inkscape.org/namespaces/inkscape"
   width="744.09448819"
   height="1052.3622047"
   id="svg2438"
   sodipodi:version="0.32"
   inkscape:version="0.46"
   sodipodi:docname="ingame.svg"
   inkscape:output_extension="org.inkscape.output.svg.inkscape">
  <defs
     id="defs2440">
    <inkscape:perspective
       sodipodi:type="inkscape:persp3d"
       inkscape:vp_x="0 : 526.18109 : 1"
       inkscape:vp_y="0 : 1000 : 0"
       inkscape:vp_z="744.09448 : 526.18109 : 1"
       inkscape:persp3d-origin="372.04724 : 350.78739 : 1"
       id="perspective2446" />
  </defs>
  <sodipodi:namedview
     id="base"
     pagecolor="#ffffff"
     bordercolor="#666666"
     borderopacity="1.0"
     gridtolerance="10000"
     guidetolerance="10"
     objecttolerance="10"
     inkscape:pageopacity="0.0"
     inkscape:pageshadow="2"
     inkscape:zoom="0.70710678"
     inkscape:cx="593.37702"
     inkscape:cy="811.67544"
     inkscape:document-units="px"
     inkscape:current-layer="layer1"
     showgrid="false"
     inkscape:window-width="1074"
     inkscape:window-height="726"
     inkscape:window-x="0"
     inkscape:window-y="25" />
  <metadata
     id="metadata2443">
    <rdf:RDF>
      <cc:Work
         rdf:about="">
        <dc:format>image/svg+xml</dc:format>
        <dc:type
           rdf:resource="http://purl.org/dc/dcmitype/StillImage" />
      </cc:Work>
    </rdf:RDF>
  </metadata>
  <g
     inkscape:label="Layer 1"
     inkscape:groupmode="layer"
     id="layer1">
    <rect
       style="fill:#ffffff;fill-opacity:0;stroke:#000000;stroke-width:1.0312978"
       id="rect2448"
       width="661.96869"
       height="43.968704"
       x="42.015648"
       y="60.377838" />
    <rect
       style="fill:#ffffff;fill-opacity:0;stroke:#000000"
       id="rect2450"
       width="666"
       height="902"
       x="40"
       y="102.36218" />
    <text
       xml:space="preserve"
       style="font-size:32px;font-style:normal;font-variant:normal;font-weight:normal;font-stretch:normal;text-align:start;line-height:125%;writing-mode:lr-tb;text-anchor:start;fill:#000000;fill-opacity:1;stroke:none;stroke-width:1px;stroke-linecap:butt;stroke-linejoin:miter;stroke-opacity:1;font-family:Sans;-inkscape-font-specification:Sans"
       x="566"
       y="94.362183"
       id="text2452"
       sodipodi:linespacing="125%"><tspan
         sodipodi:role="line"
         id="tspan2454"
         x="566"
         y="94.362183">1:06 PM</tspan></text>
    <rect
       style="fill:#ffffff;fill-opacity:0;stroke:#000000;stroke-width:0.96787196"
       id="rect2456"
       width="33.082378"
       height="27.976673"
       x="521.25781"
       y="68.169342" />
    <rect
       style="fill:#ffffff;fill-opacity:0;stroke:#000000"
       id="rect2458"
       width="7"
       height="11"
       x="523.68805"
       y="83.18541" />
    <rect
       style="fill:#ffffff;fill-opacity:0;stroke:#000000;stroke-width:1.13329697"
       id="rect2460"
       width="6.866703"
       height="14.402237"
       x="530.90118"
       y="79.570076" />
    <rect
       style="fill:#ffffff;fill-opacity:0;stroke:#000000;stroke-width:1.27165973"
       id="rect2462"
       width="6.7283401"
       height="18.506516"
       x="537.92603"
       y="75.256516" />
    <rect
       style="fill:#ffffff;fill-opacity:0;stroke:#000000;stroke-width:1.39813805"
       id="rect2464"
       width="6.601862"
       height="22.799454"
       x="545.0603"
       y="70.900352" />
    <path
       style="fill:none;fill-rule:evenodd;stroke:#000000;stroke-width:1.13500667px;stroke-linecap:butt;stroke-linejoin:miter;stroke-opacity:1"
       d="M 43.477863,478.24028 C 61.498093,473.25397 94.805025,458.4952 116.40393,445.93854 C 131.33408,437.2588 147.17531,430.38591 160.68047,427.76881 C 168.77671,426.19987 194.78615,442.78499 204.95702,445.93854 C 222.69138,451.43719 245.05824,470.96609 257.04707,480.25914 C 269.48851,489.90302 276.78677,496.41001 290.90561,496.41001 C 299.89722,496.41001 322.30636,481.42496 332.57765,478.24028 C 348.88076,473.18539 358.07902,464.52967 366.43619,458.05169 C 375.42333,451.08537 385.03703,441.51912 392.48121,433.82539 C 402.46052,423.51155 408.04935,415.74692 415.92173,403.5425 C 421.25554,395.27359 426.76432,384.71454 431.54874,377.29733 C 437.4594,368.13415 445.1699,358.5089 452.38476,351.05217 C 457.98936,345.2597 483.29077,347.95644 488.84781,349.03331 C 508.12871,352.76967 525.27867,355.48369 543.54236,361.14646 C 558.30925,365.72504 574.12824,368.96294 585.2144,373.25962 C 596.43029,377.60657 613.86393,384.64921 613.86393,371.24076 C 613.86393,360.39633 616.46844,351.02387 616.46844,340.95787 C 616.46844,329.15154 627.31375,320.43805 634.69995,314.71271 C 647.38152,304.8827 649.3414,308.65613 668.55849,308.65613 C 679.90714,308.65613 690.48095,314.41854 702.41701,316.73157 C 703.60814,316.96239 700.68068,315.38566 699.81252,314.71271"
       id="path3230" />
    <path
       sodipodi:type="arc"
       style="fill:#ff0000;fill-rule:evenodd;stroke:#000000;stroke-width:1px;stroke-linecap:butt;stroke-linejoin:miter;stroke-opacity:1"
       id="path3197"
       sodipodi:cx="-125"
       sodipodi:cy="507.36218"
       sodipodi:rx="5"
       sodipodi:ry="5"
       d="M -120,507.36218 A 5,5 0 1 1 -130,507.36218 A 5,5 0 1 1 -120,507.36218 z"
       transform="translate(257.8349,-75.24952)" />
    <path
       sodipodi:type="arc"
       style="fill:#ff0000;fill-rule:evenodd;stroke:#000000;stroke-width:1px;stroke-linecap:butt;stroke-linejoin:miter;stroke-opacity:1"
       id="path3199"
       sodipodi:cx="-125"
       sodipodi:cy="507.36218"
       sodipodi:rx="5"
       sodipodi:ry="5"
       d="M -120,507.36218 A 5,5 0 1 1 -130,507.36218 A 5,5 0 1 1 -120,507.36218 z"
       transform="translate(267.8349,-75.24952)" />
    <path
       sodipodi:type="arc"
       style="fill:#ff0000;fill-rule:evenodd;stroke:#000000;stroke-width:1px;stroke-linecap:butt;stroke-linejoin:miter;stroke-opacity:1"
       id="path3201"
       sodipodi:cx="-125"
       sodipodi:cy="507.36218"
       sodipodi:rx="5"
       sodipodi:ry="5"
       d="M -120,507.36218 A 5,5 0 1 1 -130,507.36218 A 5,5 0 1 1 -120,507.36218 z"
       transform="translate(277.8349,-75.24952)" />
    <path
       sodipodi:type="arc"
       style="fill:#ff0000;fill-rule:evenodd;stroke:#000000;stroke-width:1px;stroke-linecap:butt;stroke-linejoin:miter;stroke-opacity:1"
       id="path3203"
       sodipodi:cx="-125"
       sodipodi:cy="507.36218"
       sodipodi:rx="5"
       sodipodi:ry="5"
       d="M -120,507.36218 A 5,5 0 1 1 -130,507.36218 A 5,5 0 1 1 -120,507.36218 z"
       transform="translate(287.8349,-75.24952)" />
    <path
       sodipodi:type="arc"
       style="fill:#ff0000;fill-rule:evenodd;stroke:#000000;stroke-width:1px;stroke-linecap:butt;stroke-linejoin:miter;stroke-opacity:1"
       id="path3211"
       sodipodi:cx="-125"
       sodipodi:cy="507.36218"
       sodipodi:rx="5"
       sodipodi:ry="5"
       d="M -120,507.36218 A 5,5 0 1 1 -130,507.36218 A 5,5 0 1 1 -120,507.36218 z"
       transform="translate(297.8349,-75.24952)" />
    <path
       style="fill:#ff0000;fill-rule:evenodd;stroke:#000000;stroke-width:1px;stroke-linecap:butt;stroke-linejoin:miter;stroke-opacity:1"
       d="M 127.8349,427.11266 L 177.8349,427.11266 L 172.8349,422.11266 L 132.8349,422.11266 L 127.8349,427.11266 z"
       id="path3215" />
    <path
       style="fill:#ff0000;fill-rule:evenodd;stroke:#000000;stroke-width:1px;stroke-linecap:butt;stroke-linejoin:miter;stroke-opacity:1"
       d="M 150.54548,416.2455 L 154.01245,419.84831 L 182.8349,392.11266 L 179.36795,388.50985 L 150.54548,416.2455 z"
       id="path3223" />
    <path
       style="fill:#ff0000;fill-rule:evenodd;stroke:#000000;stroke-width:1px;stroke-linecap:butt;stroke-linejoin:miter;stroke-opacity:1"
       d="M 137.8349,422.11266 L 142.8349,407.11266 L 162.8349,407.11266 L 167.8349,422.11266 L 137.8349,422.11266 z"
       id="path3221" />
    <path
       sodipodi:type="arc"
       style="fill:#00ff00;fill-rule:evenodd;stroke:#000000;stroke-width:1px;stroke-linecap:butt;stroke-linejoin:miter;stroke-opacity:1"
       id="path3452"
       sodipodi:cx="-125"
       sodipodi:cy="507.36218"
       sodipodi:rx="5"
       sodipodi:ry="5"
       d="M -120,507.36218 A 5,5 0 1 1 -130,507.36218 A 5,5 0 1 1 -120,507.36218 z"
       transform="translate(676.97776,-138.9638)" />
    <path
       sodipodi:type="arc"
       style="fill:#00ff00;fill-rule:evenodd;stroke:#000000;stroke-width:1px;stroke-linecap:butt;stroke-linejoin:miter;stroke-opacity:1"
       id="path3454"
       sodipodi:cx="-125"
       sodipodi:cy="507.36218"
       sodipodi:rx="5"
       sodipodi:ry="5"
       d="M -120,507.36218 A 5,5 0 1 1 -130,507.36218 A 5,5 0 1 1 -120,507.36218 z"
       transform="translate(686.97776,-138.9638)" />
    <path
       sodipodi:type="arc"
       style="fill:#00ff00;fill-rule:evenodd;stroke:#000000;stroke-width:1px;stroke-linecap:butt;stroke-linejoin:miter;stroke-opacity:1"
       id="path3456"
       sodipodi:cx="-125"
       sodipodi:cy="507.36218"
       sodipodi:rx="5"
       sodipodi:ry="5"
       d="M -120,507.36218 A 5,5 0 1 1 -130,507.36218 A 5,5 0 1 1 -120,507.36218 z"
       transform="translate(696.97776,-138.9638)" />
    <path
       sodipodi:type="arc"
       style="fill:#00ff00;fill-rule:evenodd;stroke:#000000;stroke-width:1px;stroke-linecap:butt;stroke-linejoin:miter;stroke-opacity:1"
       id="path3458"
       sodipodi:cx="-125"
       sodipodi:cy="507.36218"
       sodipodi:rx="5"
       sodipodi:ry="5"
       d="M -120,507.36218 A 5,5 0 1 1 -130,507.36218 A 5,5 0 1 1 -120,507.36218 z"
       transform="translate(706.97776,-138.9638)" />
    <path
       sodipodi:type="arc"
       style="fill:#00ff00;fill-rule:evenodd;stroke:#000000;stroke-width:1px;stroke-linecap:butt;stroke-linejoin:miter;stroke-opacity:1"
       id="path3460"
       sodipodi:cx="-125"
       sodipodi:cy="507.36218"
       sodipodi:rx="5"
       sodipodi:ry="5"
       d="M -120,507.36218 A 5,5 0 1 1 -130,507.36218 A 5,5 0 1 1 -120,507.36218 z"
       transform="translate(716.97776,-138.9638)" />
    <path
       style="fill:#00ff00;fill-rule:evenodd;stroke:#000000;stroke-width:1px;stroke-linecap:butt;stroke-linejoin:miter;stroke-opacity:1"
       d="M 546.97776,363.39838 L 596.97776,363.39838 L 591.97776,358.39838 L 551.97776,358.39838 L 546.97776,363.39838 z"
       id="path3462" />
    <path
       style="fill:#00ff00;fill-rule:evenodd;stroke:#000000;stroke-width:1px;stroke-linecap:butt;stroke-linejoin:miter;stroke-opacity:1"
       d="M 578.5082,356.25081 L 582.15314,352.82817 L 554.7721,323.66863 L 551.12716,327.09126 L 578.5082,356.25081 z"
       id="path3464" />
    <path
       style="fill:#00ff00;fill-rule:evenodd;stroke:#000000;stroke-width:1px;stroke-linecap:butt;stroke-linejoin:miter;stroke-opacity:1"
       d="M 556.97776,358.39838 L 561.97776,343.39838 L 581.97776,343.39838 L 586.97776,358.39838 L 556.97776,358.39838 z"
       id="path3466" />
    <rect
       style="fill:#ffffff;fill-opacity:0;stroke:#000000"
       id="rect2646"
       width="672"
       height="216"
       x="36"
       y="784.36218" />
    <rect
       style="fill:#ffffff;fill-opacity:0;stroke:#000000;stroke-width:0.6517958"
       id="rect2648"
       width="180.34821"
       height="110.34818"
       x="523.82587"
       y="784.18805" />
    <rect
       style="fill:#ffffff;fill-opacity:0;stroke:#000000;stroke-width:0.65297955"
       id="rect2650"
       width="184.34702"
       height="108.34702"
       x="523.20343"
       y="894.54907" />
    <rect
       style="fill:#ffffff;fill-opacity:0;stroke:#000000;stroke-width:1.06569481"
       id="rect2652"
       width="483.9343"
       height="109.93428"
       x="37.409863"
       y="784.75549" />
    <rect
       style="fill:#ffffff;fill-opacity:0;stroke:#000000;stroke-width:1.0560143"
       id="rect2654"
       width="483.94397"
       height="107.94396"
       x="36.028011"
       y="895.3902" />
    <rect
       style="fill:#ff471a;fill-opacity:1;stroke:#000000;stroke-width:0.84015799"
       id="rect2656"
       width="300.15982"
       height="110.15982"
       x="93.920067"
       y="783.28229" />
    <path
       sodipodi:type="star"
       style="fill:#808080;stroke:#000000;stroke-opacity:1"
       id="path2583"
       sodipodi:sides="3"
       sodipodi:cx="335.37064"
       sodipodi:cy="830.1286"
       sodipodi:r1="29.829447"
       sodipodi:r2="14.914723"
       sodipodi:arg1="0.52359878"
       sodipodi:arg2="1.5707963"
       inkscape:flatsided="true"
       inkscape:rounded="0"
       inkscape:randomized="0"
       d="M 361.20369,845.04332 L 309.53758,845.04332 L 335.37064,800.29915 L 361.20369,845.04332 z"
       transform="matrix(2.4929767,0,0,2.2897265,-646.07119,-934.32993)" />
    <text
       xml:space="preserve"
       style="font-size:40px;font-style:normal;font-variant:normal;font-weight:normal;font-stretch:normal;fill:#000000;fill-opacity:1;stroke:none;stroke-width:1px;stroke-linecap:butt;stroke-linejoin:miter;stroke-opacity:1;font-family:Sans;-inkscape-font-specification:Sans"
       x="565.39062"
       y="968.94226"
       id="text2409"><tspan
         sodipodi:role="line"
         id="tspan2411"
         x="565.39062"
         y="968.94226">FIRE</tspan></text>
    <text
       xml:space="preserve"
       style="font-size:40px;font-style:normal;font-variant:normal;font-weight:normal;font-stretch:normal;fill:#000000;fill-opacity:1;stroke:none;stroke-width:1px;stroke-linecap:butt;stroke-linejoin:miter;stroke-opacity:1;font-family:Sans;-inkscape-font-specification:Sans"
       x="555.39062"
       y="852.94226"
       id="text3431"><tspan
         sodipodi:role="line"
         id="tspan3433"
         x="555.39062"
         y="852.94226">WEAP</tspan></text>
    <text
       xml:space="preserve"
       style="font-size:22px;font-style:normal;font-variant:normal;font-weight:normal;font-stretch:normal;text-align:start;line-height:125%;writing-mode:lr;text-anchor:start;fill:#000000;fill-opacity:1;stroke:none;stroke-width:1px;stroke-linecap:butt;stroke-linejoin:miter;stroke-opacity:1;font-family:Sans;-inkscape-font-specification:Sans"
       x="32"
       y="1042.3622"
       id="text3435"
       sodipodi:linespacing="125%"><tspan
         sodipodi:role="line"
         id="tspan3437"
         x="32"
         y="1042.3622">Menu: surrender, call draw, end game, help, buy game</tspan></text>
    <rect
       style="fill:#ff471a;fill-opacity:0;stroke:#000000;stroke-width:1.15932357"
       id="rect2568"
       width="53.840675"
       height="107.84068"
       x="466.07965"
       y="786.44183" />
    <rect
       style="fill:#ff471a;fill-opacity:0;stroke:#000000;stroke-width:1.15932357"
       id="rect3340"
       width="53.840675"
       height="107.84068"
       x="40.456665"
       y="785.80225" />
    <rect
       style="fill:#ff471a;fill-opacity:0;stroke:#000000;stroke-width:1.15932357"
       id="rect3342"
       width="53.840675"
       height="107.84068"
       x="39.079674"
       y="894.44183" />
    <rect
       style="fill:#ff471a;fill-opacity:0;stroke:#000000;stroke-width:1.15932357"
       id="rect3344"
       width="53.840675"
       height="107.84068"
       x="465.07965"
       y="892.44183" />
    <g
       id="g3225">
      <text
         sodipodi:linespacing="125%"
         id="text3240"
         y="171.88895"
         x="643.43585"
         style="font-size:36px;font-style:normal;font-variant:normal;font-weight:normal;font-stretch:normal;text-align:start;line-height:125%;writing-mode:lr-tb;text-anchor:start;fill:#000000;fill-opacity:1;stroke:none;stroke-width:1px;stroke-linecap:butt;stroke-linejoin:miter;stroke-opacity:1;font-family:Times New Roman;-inkscape-font-specification:Times New Roman"
         xml:space="preserve"><tspan
           id="tspan3242"
           y="171.88895"
           x="643.43585"
           sodipodi:role="line">+</tspan></text>
      <path
         d="M 672.45852,159.99342 A 19.091883,19.091883 0 1 1 634.27476,159.99342 A 19.091883,19.091883 0 1 1 672.45852,159.99342 z"
         sodipodi:ry="19.091883"
         sodipodi:rx="19.091883"
         sodipodi:cy="159.99342"
         sodipodi:cx="653.36664"
         id="path2453"
         style="fill:none;stroke:#000000;stroke-opacity:1"
         sodipodi:type="arc" />
    </g>
    <g
       id="g3233">
      <text
         sodipodi:linespacing="125%"
         id="text3234"
         y="217.32185"
         x="647.55951"
         style="font-size:36px;font-style:normal;font-variant:normal;font-weight:normal;font-stretch:normal;text-align:start;line-height:125%;writing-mode:lr-tb;text-anchor:start;fill:#000000;fill-opacity:1;stroke:none;stroke-width:1px;stroke-linecap:butt;stroke-linejoin:miter;stroke-opacity:1;font-family:Times New Roman;-inkscape-font-specification:Times New Roman"
         xml:space="preserve"><tspan
           id="tspan3236"
           y="217.32185"
           x="647.55951"
           sodipodi:role="line">-</tspan></text>
      <path
         transform="translate(0.39195,48.305087)"
         d="M 672.45852,159.99342 A 19.091883,19.091883 0 1 1 634.27476,159.99342 A 19.091883,19.091883 0 1 1 672.45852,159.99342 z"
         sodipodi:ry="19.091883"
         sodipodi:rx="19.091883"
         sodipodi:cy="159.99342"
         sodipodi:cx="653.36664"
         id="path3231"
         style="fill:none;stroke:#000000;stroke-opacity:1"
         sodipodi:type="arc" />
    </g>
  </g>
</svg>
