<?xml version="1.0" encoding="UTF-8" standalone="no"?>
<!-- Created with Inkscape (http://www.inkscape.org/) -->
<svg
   xmlns:dc="http://purl.org/dc/elements/1.1/"
   xmlns:cc="http://creativecommons.org/ns#"
   xmlns:rdf="http://www.w3.org/1999/02/22-rdf-syntax-ns#"
   xmlns:svg="http://www.w3.org/2000/svg"
   xmlns="http://www.w3.org/2000/svg"
   xmlns:sodipodi="http://sodipodi.sourceforge.net/DTD/sodipodi-0.dtd"
   xmlns:inkscape="http://www.inkscape.org/namespaces/inkscape"
   width="320"
   height="480"
   id="svg2"
   sodipodi:version="0.32"
   inkscape:version="0.46"
   version="1.0"
   sodipodi:docname="salvotitle.svg"
   inkscape:output_extension="org.inkscape.output.svg.inkscape"
   inkscape:export-filename="/home/mhock/salvotitle.png"
   inkscape:export-xdpi="90"
   inkscape:export-ydpi="90">
  <defs
     id="defs4">
    <inkscape:perspective
       sodipodi:type="inkscape:persp3d"
       inkscape:vp_x="0 : 526.18109 : 1"
       inkscape:vp_y="0 : 1000 : 0"
       inkscape:vp_z="744.09448 : 526.18109 : 1"
       inkscape:persp3d-origin="372.04724 : 350.78739 : 1"
       id="perspective10" />
  </defs>
  <sodipodi:namedview
     id="base"
     pagecolor="#ffffff"
     bordercolor="#666666"
     borderopacity="1.0"
     gridtolerance="10000"
     guidetolerance="10"
     objecttolerance="10"
     inkscape:pageopacity="0.0"
     inkscape:pageshadow="2"
     inkscape:zoom="2.8"
     inkscape:cx="146.37905"
     inkscape:cy="234.89327"
     inkscape:document-units="px"
     inkscape:current-layer="layer1"
     showgrid="false"
     inkscape:window-width="800"
     inkscape:window-height="726"
     inkscape:window-x="333"
     inkscape:window-y="69" />
  <metadata
     id="metadata7">
    <rdf:RDF>
      <cc:Work
         rdf:about="">
        <dc:format>image/svg+xml</dc:format>
        <dc:type
           rdf:resource="http://purl.org/dc/dcmitype/StillImage" />
      </cc:Work>
    </rdf:RDF>
  </metadata>
  <g
     inkscape:label="Layer 1"
     inkscape:groupmode="layer"
     id="layer1">
    <text
       xml:space="preserve"
       style="font-size:64px;font-style:normal;font-variant:normal;font-weight:bold;font-stretch:normal;text-align:start;line-height:125%;writing-mode:lr-tb;text-anchor:start;fill:#000000;fill-opacity:1;stroke:none;stroke-width:1px;stroke-linecap:butt;stroke-linejoin:miter;stroke-opacity:1;font-family:Verdana;-inkscape-font-specification:Verdana Bold"
       x="22.410427"
       y="248.37085"
       id="text2383"
       sodipodi:linespacing="125%"><tspan
         sodipodi:role="line"
         id="tspan2385"
         x="22.410427"
         y="248.37085">S    LVO</tspan></text>
    <path
       sodipodi:type="arc"
       style="fill:#ff0000;fill-rule:evenodd;stroke:#000000;stroke-width:1px;stroke-linecap:butt;stroke-linejoin:miter;stroke-opacity:1"
       id="path3197"
       sodipodi:cx="-125"
       sodipodi:cy="507.36218"
       sodipodi:rx="5"
       sodipodi:ry="5"
       d="M -120,507.36218 A 5,5 0 1 1 -130,507.36218 A 5,5 0 1 1 -120,507.36218 z"
       transform="matrix(0.5580583,0,0,0.5580583,114.52714,43.655066)" />
    <path
       sodipodi:type="arc"
       style="fill:#ff0000;fill-rule:evenodd;stroke:#000000;stroke-width:1px;stroke-linecap:butt;stroke-linejoin:miter;stroke-opacity:1"
       id="path3199"
       sodipodi:cx="-125"
       sodipodi:cy="507.36218"
       sodipodi:rx="5"
       sodipodi:ry="5"
       d="M -120,507.36218 A 5,5 0 1 1 -130,507.36218 A 5,5 0 1 1 -120,507.36218 z"
       transform="matrix(0.5580583,0,0,0.5580583,120.10772,43.655066)" />
    <path
       sodipodi:type="arc"
       style="fill:#ff0000;fill-rule:evenodd;stroke:#000000;stroke-width:1px;stroke-linecap:butt;stroke-linejoin:miter;stroke-opacity:1"
       id="path3201"
       sodipodi:cx="-125"
       sodipodi:cy="507.36218"
       sodipodi:rx="5"
       sodipodi:ry="5"
       d="M -120,507.36218 A 5,5 0 1 1 -130,507.36218 A 5,5 0 1 1 -120,507.36218 z"
       transform="matrix(0.5580583,0,0,0.5580583,125.68831,43.655066)" />
    <path
       sodipodi:type="arc"
       style="fill:#ff0000;fill-rule:evenodd;stroke:#000000;stroke-width:1px;stroke-linecap:butt;stroke-linejoin:miter;stroke-opacity:1"
       id="path3203"
       sodipodi:cx="-125"
       sodipodi:cy="507.36218"
       sodipodi:rx="5"
       sodipodi:ry="5"
       d="M -120,507.36218 A 5,5 0 1 1 -130,507.36218 A 5,5 0 1 1 -120,507.36218 z"
       transform="matrix(0.5580583,0,0,0.5580583,131.26888,43.655066)" />
    <path
       sodipodi:type="arc"
       style="fill:#ff0000;fill-rule:evenodd;stroke:#000000;stroke-width:1px;stroke-linecap:butt;stroke-linejoin:miter;stroke-opacity:1"
       id="path3211"
       sodipodi:cx="-125"
       sodipodi:cy="507.36218"
       sodipodi:rx="5"
       sodipodi:ry="5"
       d="M -120,507.36218 A 5,5 0 1 1 -130,507.36218 A 5,5 0 1 1 -120,507.36218 z"
       transform="matrix(0.5580583,0,0,0.5580583,136.84947,43.655066)" />
    <path
       style="fill:#ff0000;fill-rule:evenodd;stroke:#000000;stroke-width:0.55805832px;stroke-linecap:butt;stroke-linejoin:miter;stroke-opacity:1"
       d="M 41.979561,324.00245 L 69.882476,324.00245 L 67.092184,321.21216 L 44.769852,321.21216 L 41.979561,324.00245 z"
       id="path3215" />
    <path
       style="fill:#ff0000;fill-rule:evenodd;stroke:#000000;stroke-width:0.55805832px;stroke-linecap:butt;stroke-linejoin:miter;stroke-opacity:1"
       d="M 56.586758,321.86006 L 59.3237,322.40313 L 63.668329,300.50769 L 60.931398,299.96461 L 56.586758,321.86006 z"
       id="path3223" />
    <path
       style="fill:#ff0000;fill-rule:evenodd;stroke:#000000;stroke-width:0.55805832px;stroke-linecap:butt;stroke-linejoin:miter;stroke-opacity:1"
       d="M 47.560144,321.21216 L 50.350435,312.84128 L 61.511601,312.84128 L 64.301893,321.21216 L 47.560144,321.21216 z"
       id="path3221" />
    <g
       id="g2474"
       transform="translate(18.789347,-11.259611)"
       style="fill:#ffff00">
      <path
         transform="matrix(0.5580583,0,0,0.5580583,195.59187,15.452108)"
         d="M -120,507.36218 A 5,5 0 1 1 -130,507.36218 A 5,5 0 1 1 -120,507.36218 z"
         sodipodi:ry="5"
         sodipodi:rx="5"
         sodipodi:cy="507.36218"
         sodipodi:cx="-125"
         id="path2448"
         style="fill:#ffff00;fill-rule:evenodd;stroke:#000000;stroke-width:1px;stroke-linecap:butt;stroke-linejoin:miter;stroke-opacity:1"
         sodipodi:type="arc" />
      <path
         transform="matrix(0.5580583,0,0,0.5580583,201.17246,15.452108)"
         d="M -120,507.36218 A 5,5 0 1 1 -130,507.36218 A 5,5 0 1 1 -120,507.36218 z"
         sodipodi:ry="5"
         sodipodi:rx="5"
         sodipodi:cy="507.36218"
         sodipodi:cx="-125"
         id="path2450"
         style="fill:#ffff00;fill-rule:evenodd;stroke:#000000;stroke-width:1px;stroke-linecap:butt;stroke-linejoin:miter;stroke-opacity:1"
         sodipodi:type="arc" />
      <path
         transform="matrix(0.5580583,0,0,0.5580583,206.75304,15.452108)"
         d="M -120,507.36218 A 5,5 0 1 1 -130,507.36218 A 5,5 0 1 1 -120,507.36218 z"
         sodipodi:ry="5"
         sodipodi:rx="5"
         sodipodi:cy="507.36218"
         sodipodi:cx="-125"
         id="path2452"
         style="fill:#ffff00;fill-rule:evenodd;stroke:#000000;stroke-width:1px;stroke-linecap:butt;stroke-linejoin:miter;stroke-opacity:1"
         sodipodi:type="arc" />
      <path
         transform="matrix(0.5580583,0,0,0.5580583,212.33362,15.452108)"
         d="M -120,507.36218 A 5,5 0 1 1 -130,507.36218 A 5,5 0 1 1 -120,507.36218 z"
         sodipodi:ry="5"
         sodipodi:rx="5"
         sodipodi:cy="507.36218"
         sodipodi:cx="-125"
         id="path2454"
         style="fill:#ffff00;fill-rule:evenodd;stroke:#000000;stroke-width:1px;stroke-linecap:butt;stroke-linejoin:miter;stroke-opacity:1"
         sodipodi:type="arc" />
      <path
         transform="matrix(0.5580583,0,0,0.5580583,217.91421,15.452108)"
         d="M -120,507.36218 A 5,5 0 1 1 -130,507.36218 A 5,5 0 1 1 -120,507.36218 z"
         sodipodi:ry="5"
         sodipodi:rx="5"
         sodipodi:cy="507.36218"
         sodipodi:cx="-125"
         id="path2456"
         style="fill:#ffff00;fill-rule:evenodd;stroke:#000000;stroke-width:1px;stroke-linecap:butt;stroke-linejoin:miter;stroke-opacity:1"
         sodipodi:type="arc" />
      <path
         id="path2458"
         d="M 123.0443,295.7995 L 150.94721,295.7995 L 148.15692,293.00921 L 125.83459,293.00921 L 123.0443,295.7995 z"
         style="fill:#ffff00;fill-rule:evenodd;stroke:#000000;stroke-width:0.55805832px;stroke-linecap:butt;stroke-linejoin:miter;stroke-opacity:1" />
      <path
         id="path2460"
         d="M 138.69166,290.79936 L 140.36179,288.56409 L 122.47969,275.20309 L 120.80956,277.43835 L 138.69166,290.79936 z"
         style="fill:#ffff00;fill-rule:evenodd;stroke:#000000;stroke-width:0.55805832px;stroke-linecap:butt;stroke-linejoin:miter;stroke-opacity:1" />
      <path
         id="path2462"
         d="M 128.62488,293.00921 L 131.41517,284.63833 L 142.57634,284.63833 L 145.36663,293.00921 L 128.62488,293.00921 z"
         style="fill:#ffff00;fill-rule:evenodd;stroke:#000000;stroke-width:0.55805832px;stroke-linecap:butt;stroke-linejoin:miter;stroke-opacity:1" />
    </g>
    <path
       style="fill:none;fill-rule:evenodd;stroke:#000000;stroke-width:1.42081809px;stroke-linecap:butt;stroke-linejoin:miter;stroke-opacity:1"
       d="M 64.355095,293.92152 C 99.520387,31.490812 142.2211,217.03752 142.2211,217.03752"
       id="path2488" />
    <path
       style="fill:#00ff00;fill-rule:evenodd;stroke:#000000;stroke-width:1px;stroke-linecap:butt;stroke-linejoin:miter;stroke-opacity:1"
       d="M 20.203051,340.09387 L 38.890873,330.49742 L 74.246212,330.49742 L 80.812204,302.21315 L 94.449263,234.02785 L 113.13708,234.02785 L 118.18785,266.35274 L 124.24876,253.22075 L 141.42136,291.10147 L 173.34269,290.5964 L 182.88838,313.57736 L 213.64727,286.0507 L 241.42646,340.59895 L 19.697975,340.59895"
       id="path2518"
       sodipodi:nodetypes="cccccccccccccc" />
    <g
       id="g3300"
       transform="matrix(0.1223257,0.512998,-0.512998,0.1223257,201.77126,99.524455)">
      <g
         id="g3296">
        <path
           sodipodi:type="arc"
           style="fill:#cccccc"
           id="path2522"
           sodipodi:cx="215.16249"
           sodipodi:cy="162.30702"
           sodipodi:rx="34.850262"
           sodipodi:ry="10.101525"
           d="M 250.01275,162.30702 A 34.850262,10.101525 0 1 1 180.31223,162.30702 A 34.850262,10.101525 0 1 1 250.01275,162.30702 z"
           transform="matrix(0.7971014,0,0,1,36.585091,0)" />
        <path
           style="fill:#cccccc;fill-rule:evenodd;stroke:none;stroke-width:1px;stroke-linecap:butt;stroke-linejoin:miter;stroke-opacity:1"
           d="M 175.26147,138.56844 L 175.26147,185.54053 L 202.53559,162.8121 L 175.26147,138.56844 z"
           id="path2524" />
      </g>
    </g>
    <g
       id="g3367">
      <path
         transform="matrix(0.5580583,0,0,0.5580583,162.76935,-52.509593)"
         d="M -120,507.36218 A 5,5 0 1 1 -130,507.36218 A 5,5 0 1 1 -120,507.36218 z"
         sodipodi:ry="5"
         sodipodi:rx="5"
         sodipodi:cy="507.36218"
         sodipodi:cx="-125"
         id="path3327"
         style="fill:#0000ff;fill-rule:evenodd;stroke:#000000;stroke-width:1px;stroke-linecap:butt;stroke-linejoin:miter;stroke-opacity:1"
         sodipodi:type="arc" />
      <path
         transform="matrix(0.5580583,0,0,0.5580583,168.34994,-52.509593)"
         d="M -120,507.36218 A 5,5 0 1 1 -130,507.36218 A 5,5 0 1 1 -120,507.36218 z"
         sodipodi:ry="5"
         sodipodi:rx="5"
         sodipodi:cy="507.36218"
         sodipodi:cx="-125"
         id="path3329"
         style="fill:#0000ff;fill-rule:evenodd;stroke:#000000;stroke-width:1px;stroke-linecap:butt;stroke-linejoin:miter;stroke-opacity:1"
         sodipodi:type="arc" />
      <path
         transform="matrix(0.5580583,0,0,0.5580583,173.93052,-52.509593)"
         d="M -120,507.36218 A 5,5 0 1 1 -130,507.36218 A 5,5 0 1 1 -120,507.36218 z"
         sodipodi:ry="5"
         sodipodi:rx="5"
         sodipodi:cy="507.36218"
         sodipodi:cx="-125"
         id="path3331"
         style="fill:#0000ff;fill-rule:evenodd;stroke:#000000;stroke-width:1px;stroke-linecap:butt;stroke-linejoin:miter;stroke-opacity:1"
         sodipodi:type="arc" />
      <path
         transform="matrix(0.5580583,0,0,0.5580583,179.5111,-52.509593)"
         d="M -120,507.36218 A 5,5 0 1 1 -130,507.36218 A 5,5 0 1 1 -120,507.36218 z"
         sodipodi:ry="5"
         sodipodi:rx="5"
         sodipodi:cy="507.36218"
         sodipodi:cx="-125"
         id="path3333"
         style="fill:#0000ff;fill-rule:evenodd;stroke:#000000;stroke-width:1px;stroke-linecap:butt;stroke-linejoin:miter;stroke-opacity:1"
         sodipodi:type="arc" />
      <path
         transform="matrix(0.5580583,0,0,0.5580583,185.09169,-52.509593)"
         d="M -120,507.36218 A 5,5 0 1 1 -130,507.36218 A 5,5 0 1 1 -120,507.36218 z"
         sodipodi:ry="5"
         sodipodi:rx="5"
         sodipodi:cy="507.36218"
         sodipodi:cx="-125"
         id="path3335"
         style="fill:#0000ff;fill-rule:evenodd;stroke:#000000;stroke-width:1px;stroke-linecap:butt;stroke-linejoin:miter;stroke-opacity:1"
         sodipodi:type="arc" />
      <path
         id="path3337"
         d="M 90.221778,227.8378 L 118.12469,227.8378 L 115.3344,225.04751 L 93.012068,225.04751 L 90.221778,227.8378 z"
         style="fill:#0000ff;fill-rule:evenodd;stroke:#000000;stroke-width:0.55805832px;stroke-linecap:butt;stroke-linejoin:miter;stroke-opacity:1" />
      <path
         id="path3339"
         d="M 102.56872,222.80205 L 104.57339,224.74293 L 120.10044,208.70558 L 118.09577,206.76469 L 102.56872,222.80205 z"
         style="fill:#0000ff;fill-rule:evenodd;stroke:#000000;stroke-width:0.55805832px;stroke-linecap:butt;stroke-linejoin:miter;stroke-opacity:1" />
      <path
         id="path3341"
         d="M 95.802358,225.04751 L 98.592648,216.67663 L 109.75382,216.67663 L 112.54411,225.04751 L 95.802358,225.04751 z"
         style="fill:#0000ff;fill-rule:evenodd;stroke:#000000;stroke-width:0.55805832px;stroke-linecap:butt;stroke-linejoin:miter;stroke-opacity:1" />
    </g>
  </g>
</svg>
